<svg height="16" shape-rendering="crispEdges" width="16" xmlns="http://www.w3.org/2000/svg"><path d="m5 2h1v1h-1z"/><path d="m4 3h1v1h-1z"/><path d="m5 3h1v1h-1z" fill="#fc7f7f"/><path d="m6 3h1v1h-1z"/><path d="m4 4h1v1h-1z"/><path d="m5 4h1v1h-1z" fill="#fc7f7f"/><path d="m6 4h1v1h-1z"/><path d="m3 5h1v1h-1z"/><g fill="#fc7f7f"><path d="m4 5h1v1h-1z"/><path d="m5 5h1v1h-1z"/><path d="m6 5h1v1h-1z"/></g><path d="m7 5h1v1h-1z"/><path d="m3 6h1v1h-1z"/><g fill="#fc7f7f"><path d="m4 6h1v1h-1z"/><path d="m5 6h1v1h-1z"/><path d="m6 6h1v1h-1z"/></g><path d="m7 6h1v1h-1z"/><path d="m12 6h1v1h-1z"/><path d="m2 7h1v1h-1z"/><g fill="#fc7f7f"><path d="m3 7h1v1h-1z"/><path d="m4 7h1v1h-1z"/><path d="m5 7h1v1h-1z"/><path d="m6 7h1v1h-1z"/></g><path d="m7 7h1v1h-1z"/><path d="m11 7h1v1h-1z"/><path d="m12 7h1v1h-1z" fill="#fc7f7f"/><path d="m13 7h1v1h-1z"/><path d="m2 8h1v1h-1z"/><g fill="#fc7f7f"><path d="m3 8h1v1h-1z"/><path d="m4 8h1v1h-1z"/><path d="m5 8h1v1h-1z"/><path d="m6 8h1v1h-1z"/><path d="m7 8h1v1h-1z"/></g><path d="m8 8h1v1h-1z"/><path d="m11 8h1v1h-1z"/><path d="m12 8h1v1h-1z" fill="#fc7f7f"/><path d="m13 8h1v1h-1z"/><path d="m1 9h1v1h-1z"/><g fill="#fc7f7f"><path d="m2 9h1v1h-1z"/><path d="m3 9h1v1h-1z"/><path d="m4 9h1v1h-1z"/><path d="m5 9h1v1h-1z"/><path d="m6 9h1v1h-1z"/><path d="m7 9h1v1h-1z"/></g><path d="m8 9h1v1h-1z"/><path d="m10 9h1v1h-1z"/><g fill="#fc7f7f"><path d="m11 9h1v1h-1z"/><path d="m12 9h1v1h-1z"/><path d="m13 9h1v1h-1z"/></g><path d="m14 9h1v1h-1z"/><path d="m1 10h1v1h-1z"/><g fill="#fc7f7f"><path d="m2 10h1v1h-1z"/><path d="m3 10h1v1h-1z"/><path d="m4 10h1v1h-1z"/><path d="m5 10h1v1h-1z"/><path d="m6 10h1v1h-1z"/><path d="m7 10h1v1h-1z"/></g><path d="m8 10h1v1h-1z"/><path d="m10 10h1v1h-1z"/><g fill="#fc7f7f"><path d="m11 10h1v1h-1z"/><path d="m12 10h1v1h-1z"/><path d="m13 10h1v1h-1z"/></g><path d="m14 10h1v1h-1z"/><path d="m0 11h1v1h-1z"/><g fill="#fc7f7f"><path d="m1 11h1v1h-1z"/><path d="m2 11h1v1h-1z"/><path d="m3 11h1v1h-1z"/><path d="m4 11h1v1h-1z"/><path d="m5 11h1v1h-1z"/><path d="m6 11h1v1h-1z"/><path d="m7 11h1v1h-1z"/><path d="m8 11h1v1h-1z"/></g><path d="m9 11h1v1h-1z"/><g fill="#fc7f7f"><path d="m10 11h1v1h-1z"/><path d="m11 11h1v1h-1z"/><path d="m12 11h1v1h-1z"/><path d="m13 11h1v1h-1z"/></g><path d="m14 11h1v1h-1z"/><g fill="#fc7f7f"><path d="m0 12h1v1h-1z"/><path d="m1 12h1v1h-1z"/><path d="m2 12h1v1h-1z"/><path d="m3 12h1v1h-1z"/><path d="m4 12h1v1h-1z"/><path d="m5 12h1v1h-1z"/><path d="m6 12h1v1h-1z"/><path d="m7 12h1v1h-1z"/><path d="m8 12h1v1h-1z"/></g><path d="m9 12h1v1h-1z"/><g fill="#fc7f7f"><path d="m10 12h1v1h-1z"/><path d="m11 12h1v1h-1z"/><path d="m12 12h1v1h-1z"/><path d="m13 12h1v1h-1z"/><path d="m14 12h1v1h-1z"/></g><path d="m15 12h1v1h-1z"/><g fill="#fc7f7f"><path d="m0 13h1v1h-1z"/><path d="m1 13h1v1h-1z"/><path d="m2 13h1v1h-1z"/></g><path d="m3 13h1v1h-1z"/><path d="m4 13h1v1h-1z"/><path d="m5 13h1v1h-1z"/><path d="m6 13h1v1h-1z" fill="#fc7f7f"/><path d="m7 13h1v1h-1z" fill="#fc7f7f"/><path d="m8 13h1v1h-1z"/><g fill="#fc7f7f"><path d="m9 13h1v1h-1z"/><path d="m10 13h1v1h-1z"/><path d="m11 13h1v1h-1z"/><path d="m12 13h1v1h-1z"/><path d="m13 13h1v1h-1z"/><path d="m14 13h1v1h-1z"/><path d="m15 13h1v1h-1z"/><path d="m0 14h1v1h-1z"/><path d="m1 14h1v1h-1z"/></g><path d="m2 14h1v1h-1z"/><g fill="#fc7f7f"><path d="m3 14h1v1h-1z"/><path d="m4 14h1v1h-1z"/><path d="m5 14h1v1h-1z"/></g><path d="m6 14h1v1h-1z"/><path d="m7 14h1v1h-1z" fill="#fc7f7f"/><path d="m8 14h1v1h-1z"/><g fill="#fc7f7f"><path d="m9 14h1v1h-1z"/><path d="m10 14h1v1h-1z"/><path d="m11 14h1v1h-1z"/><path d="m12 14h1v1h-1z"/><path d="m13 14h1v1h-1z"/><path d="m14 14h1v1h-1z"/><path d="m15 14h1v1h-1z"/><path d="m0 15h1v1h-1z"/></g><path d="m1 15h1v1h-1z"/><g fill="#fc7f7f"><path d="m2 15h1v1h-1z"/><path d="m3 15h1v1h-1z"/><path d="m4 15h1v1h-1z"/><path d="m5 15h1v1h-1z"/><path d="m6 15h1v1h-1z"/></g><path d="m7 15h1v1h-1z"/><g fill="#fc7f7f"><path d="m8 15h1v1h-1z"/><path d="m9 15h1v1h-1z"/><path d="m10 15h1v1h-1z"/><path d="m11 15h1v1h-1z"/><path d="m12 15h1v1h-1z"/><path d="m13 15h1v1h-1z"/><path d="m14 15h1v1h-1z"/><path d="m15 15h1v1h-1z"/></g></svg>